<?xml version="1.0" standalone="no"?>
<!DOCTYPE svg PUBLIC "-//W3C//DTD SVG 20010904//EN"
 "http://www.w3.org/TR/2001/REC-SVG-20010904/DTD/svg10.dtd">
<svg version="1.0" xmlns="http://www.w3.org/2000/svg"
 width="1024.000000pt" height="1024.000000pt" viewBox="0 0 1024.000000 1024.000000"
 preserveAspectRatio="xMidYMid meet">

<g transform="translate(0.000000,1024.000000) scale(0.100000,-0.100000)"
fill="#ffffff" stroke="none">
<path d="M4810 8639 c-156 -14 -306 -38 -470 -75 -555 -128 -1060 -365 -1500
-705 -111 -85 -366 -332 -485 -469 -577 -664 -874 -1467 -875 -2360 0 -304 38
-604 116 -924 174 -706 614 -1396 1186 -1859 454 -366 1073 -648 1667 -758
317 -58 602 -79 859 -60 537 38 1002 162 1467 391 556 274 981 626 1322 1095
594 819 810 1976 557 2995 -100 405 -274 795 -506 1137 -359 527 -803 919
-1358 1197 -471 236 -886 355 -1373 395 -146 12 -466 12 -607 0z m547 -350
c139 -11 326 -39 468 -70 440 -96 952 -337 1323 -624 147 -114 419 -378 528
-514 298 -371 505 -780 614 -1211 81 -321 103 -503 104 -845 0 -234 -3 -278
-27 -440 -65 -426 -149 -699 -318 -1038 -202 -404 -531 -801 -886 -1068 l-91
-69 -321 0 -321 0 0 24 c0 34 -44 68 -137 106 -43 17 -108 45 -145 62 l-68 31
0 564 c0 617 2 590 -61 675 -19 25 -93 123 -165 219 -73 96 -193 255 -268 354
l-135 180 -1 200 0 200 -103 65 c-306 192 -574 369 -604 396 -42 40 -46 92 -8
129 32 33 55 31 107 -8 61 -46 140 -100 308 -209 355 -230 348 -227 445 -227
74 -1 154 30 231 89 30 24 56 41 58 39 11 -11 175 -285 261 -434 54 -94 111
-189 127 -212 l29 -43 304 0 305 0 0 21 c0 12 -47 103 -104 203 -169 295 -430
755 -476 839 -51 94 -54 85 72 221 97 104 169 159 276 209 59 28 77 32 152 32
75 0 93 -4 152 -32 37 -17 88 -46 113 -63 114 -79 216 -101 301 -65 77 32 143
120 144 191 0 36 -118 518 -148 605 -26 73 -59 125 -112 172 -40 37 -151 97
-178 97 -8 0 12 24 44 52 72 66 104 131 104 211 0 51 -4 62 -29 88 -52 51 -89
33 -116 -57 -14 -48 -56 -99 -101 -122 -11 -6 -51 -18 -90 -27 -75 -17 -131
-60 -155 -117 l-12 -29 -85 3 -85 3 -17 50 c-111 327 -415 573 -743 603 -268
25 -494 -60 -688 -260 l-76 -78 -725 0 c-821 0 -800 2 -959 -81 -89 -47 -214
-156 -270 -238 -19 -27 -52 -60 -74 -74 -63 -41 -172 -155 -232 -244 -127
-191 -183 -416 -183 -739 l0 -151 -34 -43 c-65 -82 -70 -153 -20 -298 62 -181
113 -234 180 -187 30 20 98 166 119 252 21 86 16 134 -19 207 -25 51 -26 59
-26 239 0 249 28 373 113 504 l32 48 6 -95 c4 -52 14 -124 23 -160 29 -113
107 -260 179 -337 36 -38 36 -36 -33 -208 -34 -86 -53 -151 -57 -192 -6 -61
-5 -63 59 -180 197 -358 393 -707 420 -745 l19 -28 320 0 c265 0 321 2 325 14
3 8 -30 76 -74 153 -133 233 -329 585 -353 634 l-22 47 98 121 98 121 184 0
c181 0 183 0 187 23 19 98 30 136 60 200 46 96 137 195 230 249 39 23 73 43
75 45 2 1 -17 33 -43 70 -139 205 -121 453 44 606 146 136 346 162 529 71 181
-90 274 -275 191 -379 l-30 -38 0 -145 c0 -166 -11 -203 -83 -275 -59 -59
-115 -80 -227 -85 -83 -4 -105 -1 -171 22 -42 14 -83 26 -93 26 -28 0 -128
-56 -177 -98 -129 -114 -181 -290 -145 -485 22 -118 42 -168 149 -387 l90
-184 -22 -36 c-134 -215 -152 -379 -61 -568 l40 -84 0 -338 0 -337 -56 -12
c-101 -20 -198 -75 -292 -164 -151 -146 -521 -535 -538 -568 -26 -51 -7 -89
115 -234 60 -71 117 -142 126 -158 l16 -27 -447 0 -446 0 -102 79 c-338 266
-563 520 -775 879 -231 391 -376 821 -426 1262 -19 176 -20 598 0 780 27 257
88 516 181 767 287 778 916 1457 1670 1801 194 89 387 158 579 207 238 62 352
81 645 108 83 8 299 6 417 -4z m1698 -1493 c59 -25 75 -97 30 -141 -43 -43
-111 -31 -140 26 -23 43 -5 96 39 115 39 16 31 16 71 0z m-1125 -1100 c29 -32
29 -72 -1 -101 -31 -29 -277 -125 -322 -125 -24 0 -49 11 -83 36 -64 48 -174
155 -174 170 0 12 66 24 131 24 27 0 50 -9 83 -35 26 -19 52 -35 59 -34 6 0
57 20 112 44 118 51 161 56 195 21z m-495 -1939 l180 -123 6 -194 c7 -205 13
-258 53 -436 31 -138 74 -383 82 -471 3 -38 10 -80 14 -95 l9 -28 -197 -2
c-108 -1 -231 -1 -272 -1 -41 1 -294 2 -562 2 l-488 1 0 40 c0 25 -20 92 -50
171 -28 71 -48 134 -45 138 7 13 252 168 593 377 161 98 306 190 322 204 27
23 35 48 90 265 70 278 69 275 78 275 4 -1 88 -56 187 -123z"/>
<path d="M4968 6858 c-155 -20 -253 -129 -252 -283 0 -97 38 -178 125 -264 93
-91 139 -116 219 -116 78 0 134 24 161 69 16 27 19 52 19 179 l0 148 35 30
c47 42 46 73 -4 130 -75 85 -181 123 -303 107z"/>
</g>
</svg>
