<?xml version="1.0" standalone="no"?>
<!DOCTYPE svg PUBLIC "-//W3C//DTD SVG 20010904//EN"
 "http://www.w3.org/TR/2001/REC-SVG-20010904/DTD/svg10.dtd">
<svg version="1.0" xmlns="http://www.w3.org/2000/svg"
 width="700.000000pt" height="700.000000pt" viewBox="0 0 700.000000 700.000000"
 preserveAspectRatio="xMidYMid meet">
<metadata>
Created by potrace 1.14, written by Peter Selinger 2001-2017
</metadata>
<g transform="translate(0.000000,700.000000) scale(0.100000,-0.100000)"
fill="#000000" stroke="none">
<path d="M3270 5907 c-3 -3 -32 -8 -65 -11 -257 -29 -579 -128 -842 -259 -114
-57 -341 -195 -373 -227 -3 -3 -27 -23 -55 -45 -121 -96 -293 -269 -391 -394
-11 -13 -31 -38 -45 -55 -92 -111 -255 -401 -320 -571 -34 -90 -96 -289 -104
-338 -4 -17 -10 -50 -15 -72 -14 -62 -28 -162 -37 -255 -14 -154 -8 -482 11
-577 3 -11 8 -43 12 -70 3 -26 8 -57 11 -68 2 -11 8 -45 14 -75 63 -327 250
-713 489 -1008 215 -267 463 -464 780 -623 262 -131 565 -228 795 -256 21 -2
42 -6 45 -8 14 -9 194 -20 315 -19 126 0 263 9 315 19 14 3 45 8 70 11 133 17
429 96 525 139 17 7 53 22 80 33 189 74 462 236 635 375 101 82 271 254 350
355 235 302 387 636 465 1027 40 201 49 295 49 505 0 305 -32 507 -129 805
-139 427 -459 870 -832 1153 -268 203 -638 378 -957 452 -79 18 -96 21 -201
36 -27 3 -59 9 -70 11 -26 7 -519 15 -525 10z m575 -264 c358 -60 676 -194
995 -417 114 -80 324 -283 429 -416 149 -188 278 -424 352 -643 21 -62 75
-266 85 -320 38 -210 40 -576 5 -772 -45 -250 -102 -429 -200 -630 -51 -104
-183 -317 -223 -359 -7 -8 -29 -34 -48 -60 -53 -69 -267 -275 -342 -330 l-67
-49 -208 1 c-114 1 -214 1 -222 2 -8 0 -11 3 -8 6 14 15 -16 43 -75 70 -34 16
-85 40 -112 54 l-51 25 -1 380 c0 209 -4 391 -8 405 -5 14 -101 148 -214 298
l-206 273 0 137 -1 136 -172 111 c-227 145 -323 212 -330 232 -10 25 10 68 34
71 14 2 91 -43 226 -132 113 -75 228 -147 256 -160 78 -36 146 -25 239 37 24
16 45 28 46 26 9 -10 93 -150 171 -284 48 -82 95 -158 103 -167 13 -16 37 -18
219 -18 182 0 203 2 203 17 0 17 -19 53 -170 318 -90 158 -111 195 -170 300
-12 22 -35 63 -50 90 -36 64 -31 77 68 174 97 94 182 141 263 143 64 2 94 -8
202 -71 95 -54 161 -61 215 -22 45 31 74 77 74 114 0 43 -88 390 -113 447 -23
50 -75 103 -134 132 -22 11 -42 22 -44 24 -2 2 14 23 37 48 60 65 75 144 35
188 -28 31 -49 22 -76 -34 -29 -63 -49 -81 -102 -98 -74 -22 -107 -42 -127
-75 -19 -33 -21 -34 -71 -30 -29 2 -54 4 -57 4 -4 1 -12 18 -19 39 -62 178
-228 333 -412 386 -62 18 -179 24 -252 13 -106 -17 -211 -75 -307 -171 l-55
-55 -525 -3 -525 -3 -58 -27 c-76 -36 -167 -107 -220 -172 -23 -29 -59 -64
-79 -79 -55 -39 -142 -150 -181 -231 -56 -114 -78 -226 -81 -411 -2 -107 -4
-116 -31 -155 -37 -53 -37 -118 -1 -213 33 -89 54 -116 89 -117 31 0 54 31 88
120 31 81 34 137 11 190 -22 53 -28 219 -10 335 9 62 58 188 79 200 4 3 10
-23 14 -58 13 -122 54 -227 126 -318 32 -41 32 -42 -13 -164 -56 -148 -59
-134 97 -415 75 -135 152 -271 172 -303 l35 -58 216 3 c139 2 217 7 219 13 2
6 -66 135 -150 286 l-153 276 66 84 67 84 122 2 c68 1 125 3 127 6 2 2 11 30
19 61 29 109 88 192 181 251 54 34 63 48 44 60 -6 4 -25 34 -42 68 -28 55 -32
72 -33 147 0 71 4 93 24 132 79 154 252 215 408 144 77 -35 147 -106 163 -165
10 -37 8 -48 -11 -89 -18 -37 -23 -66 -25 -143 -2 -105 -12 -133 -64 -186 -52
-52 -160 -67 -271 -36 l-61 17 -54 -28 c-152 -80 -206 -254 -140 -450 15 -44
52 -131 83 -193 l56 -114 -31 -62 c-49 -97 -61 -140 -59 -214 2 -51 10 -84 33
-133 l30 -65 0 -229 -1 -228 -68 -23 c-91 -31 -148 -77 -337 -274 -186 -194
-212 -227 -204 -255 6 -20 67 -107 96 -137 31 -32 80 -100 76 -105 -3 -2 -138
-5 -301 -6 -335 -1 -296 -9 -419 92 -314 261 -531 576 -669 970 -32 90 -83
295 -93 370 -3 25 -9 68 -12 95 -13 102 -7 511 10 595 1 8 6 38 10 65 29 190
117 447 219 638 206 387 531 717 907 919 149 81 415 184 519 203 16 3 41 9 55
15 15 5 26 8 26 5 0 -2 15 1 33 6 17 5 47 12 66 15 18 3 43 7 55 10 11 2 48 7
81 10 33 4 62 8 63 9 2 2 90 3 195 3 154 -1 220 -6 332 -25z m995 -1013 c11
-11 20 -29 20 -40 0 -25 -34 -60 -59 -60 -20 0 -61 43 -61 64 0 6 7 22 16 34
19 28 57 29 84 2z m-783 -746 c12 -19 14 -30 6 -43 -13 -22 -104 -65 -179 -86
-53 -15 -65 -15 -87 -3 -31 16 -137 116 -137 129 0 5 12 10 28 11 60 3 94 -3
122 -24 l29 -21 78 31 c96 39 118 40 140 6z m-336 -1319 c59 -42 110 -79 113
-83 2 -4 7 -68 11 -142 7 -159 7 -156 33 -285 12 -55 23 -111 25 -125 5 -26
23 -137 37 -225 5 -27 6 -52 4 -55 -6 -5 -1003 -7 -1021 -1 -7 2 -13 13 -13
25 0 11 -14 63 -32 115 l-32 94 27 21 c14 11 153 99 307 194 154 96 288 184
299 198 10 13 28 63 40 111 53 215 63 244 78 239 8 -4 64 -40 124 -81z"/>
<path d="M3343 4675 c-108 -46 -150 -177 -92 -283 25 -45 83 -107 124 -132 78
-48 190 -20 202 50 1 8 3 56 4 105 2 80 5 93 26 114 12 13 23 30 23 37 0 24
-64 87 -108 106 -47 21 -132 22 -179 3z"/>
</g>
</svg>
